<svg width="1200" height="630" viewBox="0 0 62 61" fill="none" xmlns="http://www.w3.org/2000/svg">
<path id="Vector" d="M30.9248 50.4682C19.8723 50.4682 10.9291 41.5373 10.9291 30.5C10.9291 19.4627 19.8723 10.5318 30.9248 10.5318C41.9773 10.5318 50.9205 19.4627 50.9205 30.5C50.9205 33.2804 50.3299 35.9765 49.3175 38.3356L57.0795 46.087C59.8638 41.5373 61.3824 36.145 61.3824 30.4157C61.4668 13.6492 47.7988 0 30.9248 0C14.0508 0 0.382812 13.6492 0.382812 30.5C0.382812 47.3508 14.0508 61 30.9248 61C36.662 61 42.0617 59.3992 46.6176 56.703L38.7712 48.8674C36.4089 49.8785 33.709 50.4682 30.9248 50.4682ZM25.0189 30.5C25.0189 33.7859 27.6344 36.3978 30.9248 36.3978C34.2152 36.3978 36.8307 33.7859 36.8307 30.5C36.8307 27.2141 34.2152 24.6022 30.9248 24.6022C27.6344 24.6022 25.0189 27.2141 25.0189 30.5ZM59.8638 51.9848C61.8886 54.0069 61.8886 57.3771 59.8638 59.3992C57.8389 61.4213 54.4641 61.4213 52.4392 59.3992L36.9995 43.9807C34.9746 41.9586 34.9746 38.5884 36.9995 36.5663C39.0243 34.5442 42.3991 34.5442 44.424 36.5663L59.8638 51.9848Z" fill="#F3CD00"/>
</svg>
